<svg width="529" height="529" viewBox="0 0 529 529" fill="none" xmlns="http://www.w3.org/2000/svg">
<rect width="529" height="529" rx="30" fill="#1F2631"/>
<path d="M369.013 321.633L400.45 289.839C400.317 282.553 395.754 267.981 378.563 267.981L350.558 295.391M369.013 321.633L390.15 343.491M369.013 321.633L328.826 361.768M411.286 365.349L425.121 379.656V408.667L415.173 419H387.318L372.289 404.295M411.286 365.349L372.289 404.295M411.286 365.349L390.15 343.491M372.289 404.295L350.558 383.032M390.15 343.491L350.558 383.032M350.558 383.032L328.826 361.768M328.826 361.768L328.424 361.374L299.773 389.194C278.125 389.194 276.958 373.297 279.08 365.349L304.548 340.423M350.558 295.391L184.372 111.796H118.713V176.972L208.646 256.853L236.103 251.687L231.328 276.327L304.548 340.423M350.558 295.391L327.553 317.907M304.548 340.423L327.553 317.907M327.553 317.907L299.773 289.839" stroke="white" stroke-width="10" stroke-linecap="round" stroke-linejoin="round"/>
<path d="M158.109 321.109L126.672 289.274C126.804 281.978 131.367 267.388 148.558 267.388L176.564 294.833L342.749 111H408.408V176.261L318.475 256.245L291.018 251.072L295.793 275.744L222.574 339.923L248.041 364.881C250.164 372.84 248.996 388.757 227.349 388.757L198.698 360.902L198.296 361.296L176.564 382.587L154.832 403.878L139.804 418.602H111.948L102 408.256V379.207L115.835 364.881L136.972 342.995L158.109 321.109Z" fill="#1F2631"/>
<path d="M158.109 321.109L126.672 289.274C126.804 281.978 131.367 267.388 148.558 267.388L176.564 294.833M158.109 321.109L136.972 342.995M158.109 321.109L198.296 361.296M115.835 364.881L102 379.207V408.256L111.948 418.602H139.804L154.832 403.878M115.835 364.881L154.832 403.878M115.835 364.881L136.972 342.995M154.832 403.878L176.564 382.587M136.972 342.995L176.564 382.587M176.564 382.587L198.296 361.296M198.296 361.296L198.698 360.902L227.349 388.757C248.996 388.757 250.164 372.84 248.041 364.881L222.574 339.923M176.564 294.833L342.749 111H408.408V176.261L318.475 256.245L291.018 251.072L295.793 275.744L222.574 339.923M176.564 294.833L199.569 317.378M222.574 339.923L199.569 317.378M199.569 317.378L227.349 289.274" stroke="white" stroke-width="10" stroke-linecap="round" stroke-linejoin="round"/>
</svg>
